# xmcd
#
# Track frame offsets:
#	150
#	11893
#	17895
#	28617
#	41231
#	55727
#	73770
#	90141
#	102570
#	115489
#	133116
#	142882
#	154125
#	160350
#
# Disc length: 2211 seconds
#
# Revision: 0
# Processed by: cddbd v1.5.2PL0 Copyright (c) Steve Scherf et al.
# Submitted via: EasyCDDAExtractor 12.0.7.1
#
DISCID=c008a10e
DTITLE=Владимир Высоцкий - Лукоморья больше нет...
DYEAR=2011
DGENRE=Chanson
TTITLE0=Песня о старом доме
TTITLE1=Каждому хочется малость погреться
TTITLE2=Сказка про дикого вепря
TTITLE3=Песня-сказка про нечисть
TTITLE4=Сказка о несчастных сказочных персонажах
TTITLE5=Лукоморья больше нет
TTITLE6=Дворянская песня
TTITLE7=Мои похорона
TTITLE8=Песенка про белого слона
TTITLE9=Песенка про козла отпущения
TTITLE10=Одна научная загадка, или почему аборигены съели Кука
TTITLE11=Песня Алисы (Песня из дискоспектакля "Алиса в Стране Чудес")
TTITLE12=Песня антиподов (Песня из дискоспектакля "Алиса в Стране Чудес")
TTITLE13=Песня попугая-пирата (Песня из дискоспектакля "Алиса в Стране Чудес")
EXTD=
EXTT0=
EXTT1=
EXTT2=
EXTT3=
EXTT4=
EXTT5=
EXTT6=
EXTT7=
EXTT8=
EXTT9=
EXTT10=
EXTT11=
EXTT12=
EXTT13=
PLAYORDER=
